<?xml version="1.0" encoding="utf-8"?>
<!-- Generator: Adobe Illustrator 21.0.2, SVG Export Plug-In . SVG Version: 6.00 Build 0)  -->
<!DOCTYPE svg PUBLIC "-//W3C//DTD SVG 1.1//EN" "http://www.w3.org/Graphics/SVG/1.1/DTD/svg11.dtd">
<svg version="1.1" id="Layer_1" xmlns="http://www.w3.org/2000/svg" xmlns:xlink="http://www.w3.org/1999/xlink" x="0px" y="0px"
	 viewBox="0 0 200 200" style="enable-background:new 0 0 200 200;" xml:space="preserve">
<style type="text/css">
	.st0{fill:#3777AB;}
	.st1{fill:#FFD646;}
</style>
<g id="DxhYyR.tif_1_">
	<g>
		<path class="st0" d="M0.2,105c0-3.5,0-7,0-10.5c0.2-2.1,0.3-4.1,0.6-6.2c0.7-6.5,2.1-12.8,4.9-18.7c3.4-7.1,8.3-12.7,15.7-15.8
			c4-1.7,8.2-2,12.5-2c21.7,0.1,43.4,0,65.1,0c0.3,0,0.5,0,0.8,0c0.7,0,0.9-0.3,0.9-0.9c0-1.4,0-2.9,0-4.3c0-1.6,0-1.6-1.6-1.6
			c-15.2,0-30.3,0-45.5,0c-1.5,0-1.5,0-1.5-1.5c0-7,0.1-14-0.1-21c-0.1-3.7,1.1-7,3.4-9.8c2.3-2.9,5.2-4.9,8.4-6.5
			c7.1-3.5,14.7-4.8,22.5-5.6c2.5-0.2,4.9-0.4,7.4-0.6c4,0,7.9,0,11.9,0c0.4,0,0.7,0.1,1.1,0.1c4,0.4,8.1,0.7,12.1,1.3
			c6.5,1,12.8,2.8,18.6,6.2c4.6,2.7,8.3,6.3,10.3,11.3c1.1,2.7,1.3,5.5,1.3,8.4c-0.1,14.2,0,28.5,0,42.7c0,1.9-0.1,3.9-0.4,5.8
			c-1.1,7.5-4.9,13.3-11.6,17c-4.8,2.6-9.9,3.9-15.3,3.9c-15.7,0-31.4,0-47,0c-2.2,0-4.4,0.1-6.5,0.4c-8,1.1-14.4,4.9-18.4,12.1
			c-2.7,4.8-4,10.1-4,15.6c0,7.5,0,15.1,0,22.6c0,1.5,0,1.5-1.5,1.5c-5.1,0-10.2,0-15.3,0c-2.4,0-4.7-0.4-7-1.2
			c-6.2-2.3-10.7-6.6-14-12.2c-3.8-6.5-5.7-13.6-6.7-20.9C0.7,111.5,0.5,108.2,0.2,105z M72.9,32.8c4.8,0,8.8-3.9,8.8-8.7
			c0-4.8-3.9-8.7-8.7-8.7c-4.9,0-8.8,3.9-8.8,8.7C64.2,28.9,68.1,32.8,72.9,32.8z"/>
		<path class="st1" d="M200,85.9c0,9.1,0,18.2,0,27.3c-0.3,1.4-0.5,2.9-0.8,4.3c-1.3,6.5-3.3,12.7-7.2,18.1
			c-5.5,7.7-12.9,12.1-22.4,12.1c-22.4,0.1-44.9,0-67.3,0c-0.4,0-0.9-0.1-1.3,0c-0.3,0.1-0.7,0.4-0.7,0.7c-0.1,1.8-0.1,3.6,0,5.5
			c0,0.3,0.4,0.6,0.7,0.7c0.4,0.1,0.8,0,1.3,0c15,0,30.1,0,45.1,0c1.5,0,1.5,0,1.5,1.5c0,7.2,0,14.3,0.1,21.5c0,2.6-0.6,5-1.9,7.2
			c-2.4,4.1-6.1,6.7-10.3,8.7c-7.3,3.5-15.2,4.8-23.2,5.5c-7,0.6-14,0.6-21.1,0.2c-6.2-0.4-12.4-1.2-18.5-3c-5.7-1.7-11-4-15.4-8.1
			c-4-3.8-6.5-8.3-6.5-13.9c0-14.7,0-29.3,0-44c0-2.1,0.1-4.2,0.4-6.2c1-7.4,4.6-13.3,11.2-17c5-2.9,10.4-4.1,16.1-4.1
			c15.5,0,31,0,46.4,0c2.1,0,4.2-0.1,6.2-0.4c7.8-1,14.1-4.5,18.3-11.3c3.1-5.1,4.5-10.7,4.6-16.6c0-7.5,0-15,0-22.4
			c0-1.5,0.1-1.5,1.5-1.5c5.2,0,10.4-0.1,15.6,0c2.1,0.1,4.2,0.4,6.2,1c6.3,2,10.7,6.3,14.1,11.8c3.2,5.2,5,11,6.2,17
			C199.4,82.2,199.7,84,200,85.9z M128,166.6c-4.8,0-8.8,3.9-8.8,8.7c-0.1,4.8,3.9,8.9,8.7,8.9c4.8,0,8.8-3.9,8.8-8.7
			C136.8,170.7,132.9,166.7,128,166.6z"/>
	</g>
</g>
</svg>
